HIERARCHY
ROOT Hips
{
	OFFSET 0.000000 121.760803 0.000000
	CHANNELS 6 Xposition Yposition Zposition Xrotation Yrotation Zrotation 
	JOINT Spine
	{
		OFFSET 0.072000 7.257294 -0.789700
		CHANNELS 3 Xrotation Yrotation Zrotation
		JOINT Spine1
		{
			OFFSET 0.000000 12.508769 -0.658067
			CHANNELS 3 Xrotation Yrotation Zrotation
			JOINT Spine1_split
			{
				OFFSET 0.000000 12.508769 -0.658067
				CHANNELS 3 Xrotation Yrotation Zrotation
				JOINT Spine2
				{
					OFFSET 0.000000 12.508769 -0.658067
					CHANNELS 3 Xrotation Yrotation Zrotation
					JOINT Neck
					{
						OFFSET 0.000000 14.033295 7.520400
						CHANNELS 3 Xrotation Yrotation Zrotation
						JOINT Head
						{
							OFFSET 0.000000 8.198502 5.703100
							CHANNELS 3 Xrotation Yrotation Zrotation
							JOINT HeadTop_End
							{
								OFFSET 0.000000 17.760803 13.332701
								CHANNELS 3 Xrotation Yrotation Zrotation
								End Site
								{
									OFFSET 0.000000 0.000000 0.000000
								}
							}
						}
					}
					JOINT LeftShoulder
					{
						OFFSET 6.292450 5.785301 -0.669000
						CHANNELS 3 Xrotation Yrotation Zrotation
						JOINT LeftShoulder_split
						{
							OFFSET 6.292450 5.785301 -0.669000
							CHANNELS 3 Xrotation Yrotation Zrotation
							JOINT LeftArm
							{
								OFFSET 13.907140 -6.093903 1.965100
								CHANNELS 3 Xrotation Yrotation Zrotation
								JOINT LeftForeArm
								{
									OFFSET 34.140198 0.000000 0.000000
									CHANNELS 3 Xrotation Yrotation Zrotation
									JOINT LeftHand
									{
										OFFSET 40.960209 0.000000 0.000000
										CHANNELS 3 Xrotation Yrotation Zrotation
										JOINT LeftHandThumb1
										{
											OFFSET 10.006996 -7.170425 9.573125
											CHANNELS 3 Xrotation Yrotation Zrotation
											JOINT LeftHandThumb2
											{
												OFFSET 1.835007 -1.059448 1.059443
												CHANNELS 3 Xrotation Yrotation Zrotation
												JOINT LeftHandThumb3
												{
													OFFSET 2.112267 -1.219513 1.219518
													CHANNELS 3 Xrotation Yrotation Zrotation
													JOINT LeftHandThumb4
													{
														OFFSET 4.843811 -2.796570 2.796576
														CHANNELS 3 Xrotation Yrotation Zrotation
														End Site
														{
															OFFSET 0.000000 0.000000 0.000000
														}
													}
												}
											}
										}
										JOINT LeftHandIndex1
										{
											OFFSET 18.389847 -0.922348 4.596882
											CHANNELS 3 Xrotation Yrotation Zrotation
											JOINT LeftHandIndex2
											{
												OFFSET 4.711273 0.000000 0.000000
												CHANNELS 3 Xrotation Yrotation Zrotation
												JOINT LeftHandIndex3
												{
													OFFSET 2.886131 0.000000 0.000000
													CHANNELS 3 Xrotation Yrotation Zrotation
													JOINT LeftHandIndex4
													{
														OFFSET 6.145912 0.000000 0.000000
														CHANNELS 3 Xrotation Yrotation Zrotation
														End Site
														{
															OFFSET 0.000000 0.000000 0.000000
														}
													}
												}
											}
										}
										JOINT LeftHandMiddle1
										{
											OFFSET 18.013008 0.000000 0.000000
											CHANNELS 3 Xrotation Yrotation Zrotation
											JOINT LeftHandMiddle2
											{
												OFFSET 4.946693 0.000000 0.000000
												CHANNELS 3 Xrotation Yrotation Zrotation
												JOINT LeftHandMiddle3
												{
													OFFSET 3.342232 0.000000 0.000000
													CHANNELS 3 Xrotation Yrotation Zrotation
													JOINT LeftHandMiddle4
													{
														OFFSET 4.461754 0.000000 0.000000
														CHANNELS 3 Xrotation Yrotation Zrotation
														End Site
														{
															OFFSET 0.000000 0.000000 0.000000
														}
													}
												}
											}
										}
										JOINT LeftHandRing1
										{
											OFFSET 15.849892 -0.102921 -4.126150
											CHANNELS 3 Xrotation Yrotation Zrotation
											JOINT LeftHandRing2
											{
												OFFSET 3.527054 0.000000 0.000000
												CHANNELS 3 Xrotation Yrotation Zrotation
												JOINT LeftHandRing3
												{
													OFFSET 2.961098 0.000000 0.000000
													CHANNELS 3 Xrotation Yrotation Zrotation
													JOINT LeftHandRing4
													{
														OFFSET 4.927200 0.000000 0.000000
														CHANNELS 3 Xrotation Yrotation Zrotation
														End Site
														{
															OFFSET 0.000000 0.000000 0.000000
														}
													}
												}
											}
										}
										JOINT LeftHandPinky1
										{
											OFFSET 12.791824 -0.832031 -6.799156
											CHANNELS 3 Xrotation Yrotation Zrotation
											JOINT LeftHandPinky2
											{
												OFFSET 3.327133 0.000000 0.000000
												CHANNELS 3 Xrotation Yrotation Zrotation
												JOINT LeftHandPinky3
												{
													OFFSET 3.014900 0.000000 0.000000
													CHANNELS 3 Xrotation Yrotation Zrotation
													JOINT LeftHandPinky4
													{
														OFFSET 5.847786 0.000000 0.000000
														CHANNELS 3 Xrotation Yrotation Zrotation
														End Site
														{
															OFFSET 0.000000 0.000000 0.000000
														}
													}
												}
											}
										}
									}
								}
							}
						}
					}
					JOINT RightShoulder
					{
						OFFSET -6.292450 5.785301 -0.669000
						CHANNELS 3 Xrotation Yrotation Zrotation
						JOINT RightShoulder_split
						{
							OFFSET -6.292450 5.785301 -0.669000
							CHANNELS 3 Xrotation Yrotation Zrotation
							JOINT RightArm
							{
								OFFSET -13.907140 -6.093903 1.965100
								CHANNELS 3 Xrotation Yrotation Zrotation
								JOINT RightForeArm
								{
									OFFSET -34.140198 0.000000 0.000000
									CHANNELS 3 Xrotation Yrotation Zrotation
									JOINT RightHand
									{
										OFFSET -40.960209 0.000000 0.000000
										CHANNELS 3 Xrotation Yrotation Zrotation
										JOINT RightHandThumb1
										{
											OFFSET -10.007050 -7.170456 9.573117
											CHANNELS 3 Xrotation Yrotation Zrotation
											JOINT RightHandThumb2
											{
												OFFSET -1.835007 -1.059448 1.059443
												CHANNELS 3 Xrotation Yrotation Zrotation
												JOINT RightHandThumb3
												{
													OFFSET -2.112267 -1.219513 1.219518
													CHANNELS 3 Xrotation Yrotation Zrotation
													JOINT RightHandThumb4
													{
														OFFSET -4.843834 -2.796585 2.796590
														CHANNELS 3 Xrotation Yrotation Zrotation
														End Site
														{
															OFFSET 0.000000 0.000000 0.000000
														}
													}
												}
											}
										}
										JOINT RightHandIndex1
										{
											OFFSET -18.389870 -0.922424 4.596786
											CHANNELS 3 Xrotation Yrotation Zrotation
											JOINT RightHandIndex2
											{
												OFFSET -4.711273 0.000000 0.000000
												CHANNELS 3 Xrotation Yrotation Zrotation
												JOINT RightHandIndex3
												{
													OFFSET -2.886131 0.000000 0.000000
													CHANNELS 3 Xrotation Yrotation Zrotation
													JOINT RightHandIndex4
													{
														OFFSET -6.145920 0.000000 0.000000
														CHANNELS 3 Xrotation Yrotation Zrotation
														End Site
														{
															OFFSET 0.000000 0.000000 0.000000
														}
													}
												}
											}
										}
										JOINT RightHandMiddle1
										{
											OFFSET -18.013008 0.000000 0.000000
											CHANNELS 3 Xrotation Yrotation Zrotation
											JOINT RightHandMiddle2
											{
												OFFSET -4.946693 0.000000 0.000000
												CHANNELS 3 Xrotation Yrotation Zrotation
												JOINT RightHandMiddle3
												{
													OFFSET -3.342232 0.000000 0.000000
													CHANNELS 3 Xrotation Yrotation Zrotation
													JOINT RightHandMiddle4
													{
														OFFSET -4.461754 0.000000 0.000000
														CHANNELS 3 Xrotation Yrotation Zrotation
														End Site
														{
															OFFSET 0.000000 0.000000 0.000000
														}
													}
												}
											}
										}
										JOINT RightHandRing1
										{
											OFFSET -15.849876 -0.102936 -4.126237
											CHANNELS 3 Xrotation Yrotation Zrotation
											JOINT RightHandRing2
											{
												OFFSET -3.527054 0.000000 0.000000
												CHANNELS 3 Xrotation Yrotation Zrotation
												JOINT RightHandRing3
												{
													OFFSET -2.961098 0.000000 0.000000
													CHANNELS 3 Xrotation Yrotation Zrotation
													JOINT RightHandRing4
													{
														OFFSET -4.927200 0.000000 0.000000
														CHANNELS 3 Xrotation Yrotation Zrotation
														End Site
														{
															OFFSET 0.000000 0.000000 0.000000
														}
													}
												}
											}
										}
										JOINT RightHandPinky1
										{
											OFFSET -12.791786 -0.832077 -6.799222
											CHANNELS 3 Xrotation Yrotation Zrotation
											JOINT RightHandPinky2
											{
												OFFSET -3.327133 0.000000 0.000000
												CHANNELS 3 Xrotation Yrotation Zrotation
												JOINT RightHandPinky3
												{
													OFFSET -3.014900 0.000000 0.000000
													CHANNELS 3 Xrotation Yrotation Zrotation
													JOINT RightHandPinky4
													{
														OFFSET -5.847786 0.000000 0.000000
														CHANNELS 3 Xrotation Yrotation Zrotation
														End Site
														{
															OFFSET 0.000000 0.000000 0.000000
														}
													}
												}
											}
										}
									}
								}
							}
						}
					}
				}
			}
		}
	}
	JOINT LeftUpLeg
	{
		OFFSET 13.026900 -6.336304 -1.092800
		CHANNELS 3 Xrotation Yrotation Zrotation
		JOINT LeftLeg
		{
			OFFSET 0.524474 -46.096886 9.782700
			CHANNELS 3 Xrotation Yrotation Zrotation
			JOINT LeftFoot
			{
				OFFSET -0.524474 -53.427422 -12.948200
				CHANNELS 3 Xrotation Yrotation Zrotation
				JOINT LeftToeBase
				{
					OFFSET 0.192200 -14.009700 16.364100
					CHANNELS 3 Xrotation Yrotation Zrotation
					JOINT LeftToe_End
					{
						OFFSET -1.784700 -0.561700 9.474800
						CHANNELS 3 Xrotation Yrotation Zrotation
						End Site
						{
							OFFSET 0.000000 0.000000 0.000000
						}
					}
				}
			}
		}
	}
	JOINT RightUpLeg
	{
		OFFSET -12.883000 -6.336304 -1.092800
		CHANNELS 3 Xrotation Yrotation Zrotation
		JOINT RightLeg
		{
			OFFSET -0.524587 -46.096825 9.782800
			CHANNELS 3 Xrotation Yrotation Zrotation
			JOINT RightFoot
			{
				OFFSET 0.524587 -53.427383 -12.948300
				CHANNELS 3 Xrotation Yrotation Zrotation
				JOINT RightToeBase
				{
					OFFSET -0.192200 -14.009700 16.364100
					CHANNELS 3 Xrotation Yrotation Zrotation
					JOINT RightToe_End
					{
						OFFSET 1.784700 -0.561700 9.474800
						CHANNELS 3 Xrotation Yrotation Zrotation
						End Site
						{
							OFFSET 0.000000 0.000000 0.000000
						}
					}
				}
			}
		}
	}
}
MOTION
Frames: 4
Frame Time: 0.016667
-10.231293 108.183372 104.239609 23.499524 13.645243 -7.452574 9.563440 0.543997 -2.742515 -0.471735 1.782879 -0.358118 0.000000 0.000000 0.000000 -0.315421 2.367528 -0.492585 -11.049973 -0.300771 0.541620 -9.090197 2.277659 -2.833870 0.000001 -0.000001 -0.000000 0.804511 -1.055564 -19.731163 0.000000 0.000000 0.000000 11.314136 -4.215695 -51.272557 0.000020 -61.671800 0.000026 -22.443206 13.772015 -17.933509 74.823985 -40.508103 61.030274 25.606299 5.176729 -82.902227 43.119968 21.632206 -34.957465 -0.000001 -0.000001 -0.000001 5.901613 7.863751 -80.435497 5.375079 5.831735 -85.325694 1.695957 4.123086 -44.703352 -0.000000 -0.000001 -0.000003 5.020595 8.216383 -91.029360 4.694991 5.736109 -78.585069 3.096851 5.164282 -61.877498 -0.000000 -0.000001 -0.000002 4.404982 8.246831 -91.688391 5.835743 5.851047 -89.849752 1.966861 4.379191 -48.356691 0.000001 0.000001 0.000001 5.249097 8.404189 -99.924636 2.493730 4.794748 -54.937592 1.973136 4.384753 -48.438800 -0.000001 0.000000 0.000002 0.318342 6.828688 17.985686 0.000000 0.000000 0.000000 14.222250 -10.989029 46.953862 -0.000017 67.377794 0.000018 -3.079477 -19.120688 7.109478 47.809729 35.835373 -5.333812 34.631330 -33.014498 35.094612 43.708570 -16.938055 39.158697 -0.000001 -0.000000 0.000000 6.363567 -7.114828 84.445126 4.420402 -4.651142 87.082487 2.537481 -4.147774 62.900148 -0.000002 0.000001 -0.000003 7.913294 -6.614855 96.213487 4.359606 -4.647671 86.332683 2.916762 -4.320419 68.033889 -0.000000 -0.000001 0.000000 5.619630 -6.842402 101.279978 3.622436 -4.541008 77.149111 2.863068 -4.298426 67.319130 0.000002 0.000004 -0.000003 5.448567 -6.873468 99.955201 1.714558 -3.611334 50.782515 2.430818 -4.091582 61.415401 -0.000000 -0.000001 -0.000000 -36.105555 -2.068653 -7.378296 34.931493 -4.746681 -3.209407 -21.447431 2.410903 10.815709 -0.349020 0.000004 -0.000000 -0.000000 -0.000000 0.000000 -56.775729 -5.685172 -14.279604 51.399451 -7.331630 0.631220 11.424622 -4.034871 16.210428 -11.228170 -0.000001 -0.000002 -0.000000 0.000000 -0.000000 
-10.085661 108.347122 107.461731 23.769828 14.302576 -7.859694 9.424468 0.226139 -2.481810 -0.422842 1.770878 -0.370542 0.000000 0.000000 0.000000 -0.273309 2.351417 -0.497370 -11.032303 -0.263005 0.489893 -9.196466 2.170651 -2.889698 0.000001 0.000002 -0.000000 0.828884 -1.055383 -19.581370 0.000000 0.000000 0.000000 11.301106 -4.179476 -51.475140 0.000021 -61.665516 0.000019 -22.424843 13.662200 -18.020860 74.823985 -40.508110 61.030274 25.831929 5.594295 -83.199060 43.102780 21.672899 -34.905825 -0.000000 0.000001 0.000001 5.804517 7.842026 -80.834428 5.406402 5.834196 -85.633968 1.681292 4.108255 -44.499031 0.000000 0.000001 -0.000002 5.050374 8.220828 -91.320299 4.691301 5.735360 -78.548152 3.085144 5.158035 -61.747458 -0.000001 -0.000002 0.000001 4.420642 8.250795 -91.840588 5.847106 5.851061 -89.961187 1.975217 4.386589 -48.466063 -0.000001 -0.000002 -0.000002 5.222591 8.401221 -99.673593 2.447230 4.761894 -54.379330 1.979088 4.389996 -48.516555 -0.000001 0.000001 -0.000002 0.322452 6.792932 17.816149 0.000000 0.000000 0.000000 14.532754 -11.075073 47.066034 0.000013 67.339614 -0.000022 -3.353838 -18.746267 7.238124 47.809729 35.835373 -5.333814 34.631334 -33.014505 35.094612 43.484389 -17.047833 38.914603 -0.000001 0.000001 -0.000001 6.477990 -7.129504 84.356798 4.420350 -4.651138 87.082050 2.536498 -4.147273 62.886528 0.000002 0.000002 0.000001 7.925221 -6.629792 95.875598 4.359722 -4.647668 86.333974 2.916720 -4.320393 68.033117 -0.000001 0.000000 0.000001 5.608965 -6.844501 101.146489 3.622726 -4.541079 77.152751 2.865450 -4.299418 67.350979 0.000000 -0.000000 0.000002 5.470959 -6.869681 100.094804 1.712305 -3.609492 50.746844 2.438606 -4.095807 61.524691 0.000001 0.000002 0.000002 -33.835979 -3.881210 -6.884324 33.777778 -3.784096 -3.539026 -22.835904 1.869938 10.214085 -0.358351 0.000012 0.000001 -0.000000 -0.000000 0.000000 -58.459992 -5.411766 -14.335085 48.409724 -7.305640 0.341492 11.594244 -5.189648 15.249757 -12.326331 0.000004 0.000001 0.000000 -0.000001 0.000000 
-9.930595 108.372086 110.699020 24.039010 14.830911 -8.191230 9.244846 -0.096381 -2.312898 -0.374504 1.775979 -0.381386 0.000000 0.000000 0.000000 -0.232038 2.353977 -0.505843 -11.041551 -0.226222 0.447398 -9.369437 2.134342 -2.939963 0.000001 -0.000002 -0.000000 0.850977 -1.055168 -19.445718 0.000000 0.000000 0.000000 11.378942 -4.063371 -51.572614 0.000012 -61.739624 -0.000008 -22.565938 13.410599 -18.078242 74.823985 -40.508110 61.030274 25.822087 5.576413 -83.186868 43.067252 21.683373 -34.871671 -0.000001 0.000000 0.000002 5.795703 7.839588 -80.912572 5.409767 5.834453 -85.666951 1.681579 4.108544 -44.503067 -0.000001 0.000000 -0.000001 5.057600 8.221887 -91.390895 4.690763 5.735256 -78.542715 3.083731 5.157279 -61.731673 -0.000000 0.000002 -0.000000 4.426173 8.252187 -91.894431 5.849540 5.851062 -89.985072 1.974926 4.386333 -48.462228 -0.000000 0.000001 0.000001 5.222017 8.401157 -99.668142 2.445858 4.760907 -54.362790 1.979461 4.390335 -48.521514 0.000000 0.000002 -0.000001 0.330580 6.717016 17.586542 0.000000 0.000000 0.000000 14.906738 -11.096831 47.280731 0.000042 67.421173 -0.000021 -3.553401 -18.321009 7.173605 47.809733 35.835373 -5.333813 34.631330 -33.014501 35.094612 43.382052 -17.096595 38.803818 0.000001 0.000000 -0.000000 6.464562 -7.132942 84.233868 4.420332 -4.651159 87.081763 2.537508 -4.147796 62.900517 -0.000002 -0.000003 0.000001 7.910794 -6.635648 95.783738 4.359819 -4.647685 86.335224 2.916318 -4.320233 68.027946 -0.000000 0.000001 0.000001 5.607753 -6.844737 101.131039 3.623025 -4.541151 77.156474 2.865017 -4.299235 67.345344 0.000001 -0.000005 -0.000003 5.469699 -6.869895 100.086430 1.712251 -3.609465 50.745935 2.440731 -4.096962 61.554389 -0.000003 -0.000000 0.000001 -31.524663 -5.350161 -6.317239 32.662805 -2.718754 -3.754723 -24.246791 1.137131 9.518968 -0.363120 0.000001 0.000002 0.000000 -0.000001 0.000000 -60.542940 -4.824177 -14.238791 45.461838 -6.840492 0.233789 12.258988 -6.478256 14.644663 -10.982321 0.000000 0.000001 -0.000000 0.000000 0.000000 
-9.793972 108.159401 114.029633 24.214822 15.264523 -8.370069 9.051934 -0.406387 -2.341109 -0.327084 1.791590 -0.387872 0.000000 0.000000 0.000000 -0.191800 2.389391 -0.519252 -11.094804 -0.194231 0.432496 -9.618915 2.159160 -3.032444 0.000000 0.000000 0.000001 0.870925 -1.054915 -19.323109 0.000000 0.000000 0.000000 11.546877 -4.117308 -51.490901 0.000028 -61.781411 0.000019 -22.780955 13.089985 -18.094658 74.823985 -40.508103 61.030267 25.742799 5.432228 -83.085488 43.029536 21.690205 -34.839634 -0.000001 0.000000 0.000001 5.812349 7.842440 -80.897252 5.404969 5.834083 -85.619857 1.686203 4.113237 -44.567606 0.000001 -0.000002 0.000001 5.058250 8.221984 -91.397206 4.690538 5.735209 -78.540475 3.085291 5.158118 -61.749049 0.000000 0.000001 -0.000001 4.428753 8.252838 -91.919463 5.849376 5.851069 -89.983391 1.972129 4.383852 -48.425597 -0.000001 0.000001 0.000001 5.228968 8.401948 -99.733971 2.457546 4.769246 -54.503533 1.978226 4.389246 -48.505384 0.000000 0.000002 0.000002 0.359520 6.327636 17.328665 0.000000 0.000000 0.000000 15.284198 -11.054881 47.591194 0.000001 67.686983 0.000003 -3.676052 -17.827388 7.043254 47.809723 35.835366 -5.333812 34.631330 -33.014501 35.094612 43.315513 -17.127551 38.732295 0.000002 0.000000 -0.000001 6.413954 -7.132863 84.101294 4.420326 -4.651148 87.081538 2.539108 -4.148591 62.922435 0.000001 0.000001 0.000006 7.888763 -6.638785 95.763637 4.359902 -4.647689 86.336316 2.915665 -4.319973 68.019142 0.000002 0.000004 0.000002 5.609243 -6.844440 101.149897 3.623318 -4.541221 77.160169 2.863797 -4.298723 67.328842 0.000000 -0.000003 0.000001 5.460056 -6.871540 100.035101 1.712822 -3.609926 50.755078 2.441214 -4.097205 61.560871 -0.000002 0.000001 0.000000 -29.130825 -6.630333 -5.811962 31.741767 -1.584941 -3.853682 -25.855314 0.416413 8.762074 -0.352326 -0.000004 -0.000002 -0.000000 -0.000000 0.000000 -62.721600 -3.487034 -14.085950 42.717349 -8.475617 -0.169309 13.722342 -5.311816 14.955633 -10.971643 0.000003 0.000001 -0.000000 -0.000001 0.000000 
